# xmcd
#
# Track frame offsets:
#      44741
#      60517
#      79885
#      96033
#      111913
#      128781
#      151513
#      173377
#      193585
#      217369
#      235081
#      255657
#      273713
#      292541
# 
# Disc length: 4142 seconds
#
# Revision: 2
# Processed by: cddbd v1.4PL0 Copyright (c) Steve Scherf et al.
#
# Submitted via: FreeRIP 1.20
#
DISCID=cb0dda0e
DTITLE=Mobb Deep - Hell On Earth
DYEAR=1900
DGENRE=Hip-Hop
TTITLE0=Animal Instinct
TTITLE1=Drop A Gem On 'em
TTITLE2=Bloodsport
TTITLE3=Extortion
TTITLE4=More Trife Life
TTITLE5=Man Down
TTITLE6=Can't Get Enough Of It
TTITLE7=Nighttime Vultures
TTITLE8=G.O.D. Pt. III
TTITLE9=Get Dealt With
TTITLE10=Hell On Earth (Front Lines)
TTITLE11=Give It Up Fast
TTITLE12=Still Shinin'
TTITLE13=Apostle's Warning
EXTD=
EXTT0=
EXTT1=
EXTT2=
EXTT3=
EXTT4=
EXTT5=
EXTT6=
EXTT7=
EXTT8=
EXTT9=
EXTT10=
EXTT11=
EXTT12=
EXTT13=
PLAYORDER=
